<svg xmlns="http://www.w3.org/2000/svg" viewBox="0 0 16 16" fill="none"> <rect width="16" height="16" rx="8" fill="#F0E8D6"></rect> <path d="M4.67681 9.70835L6.7142 8.5651L6.74829 8.46546L6.7142 8.41039H6.61456L6.27368 8.38941L5.10946 8.35795L4.09994 8.31599L3.12188 8.26355L2.8754 8.21111L2.64465 7.90694L2.66825 7.75486L2.8754 7.61588L3.1717 7.64211L3.82723 7.68668L4.81053 7.75486L5.52375 7.79681L6.58047 7.90694H6.74829L6.77189 7.83877L6.7142 7.79681L6.66963 7.75486L5.65224 7.06524L4.55094 6.33628L3.97407 5.91674L3.66204 5.70435L3.50471 5.50507L3.43654 5.06979L3.71973 4.75776L4.09994 4.78398L4.19696 4.8102L4.58241 5.1065L5.40576 5.74368L6.48083 6.53557L6.63816 6.66667L6.70109 6.6221L6.70896 6.59063L6.63816 6.47264L6.05342 5.41592L5.42936 4.34084L5.15141 3.89508L5.07799 3.62762C5.05177 3.51749 5.03342 3.42572 5.03342 3.31297L5.35594 2.87507L5.53424 2.81738L5.96427 2.87507L6.1452 3.0324L6.41266 3.64335L6.84531 4.60568L7.51657 5.91412L7.71323 6.3022L7.81812 6.66143L7.85745 6.77156H7.92563V6.70863L7.98069 5.97181L8.08295 5.06717L8.1826 3.90295L8.21668 3.57518L8.37926 3.18186L8.70178 2.96947L8.9535 3.09008L9.16065 3.38639L9.13181 3.5778L9.00857 4.37755L8.76733 5.63093L8.61 6.47001H8.70178L8.80666 6.36513L9.23145 5.80137L9.94467 4.90984L10.2593 4.55586L10.6264 4.16516L10.8624 3.97899H11.3082L11.6359 4.4667L11.4891 4.97015L11.0302 5.55227L10.65 6.04523L10.1046 6.77942L9.76374 7.36678L9.79521 7.41398L9.87649 7.40611L11.1089 7.1439L11.7749 7.02328L12.5694 6.88693L12.9287 7.05475L12.968 7.22519L12.8264 7.57393L11.9768 7.7837L10.9804 7.98298L9.49628 8.33435L9.47793 8.34746L9.49891 8.37368L10.1676 8.43661L10.4534 8.45234H11.1535L12.4567 8.54936L12.7975 8.77487L13.0021 9.05019L12.968 9.25996L12.4436 9.52742L11.7356 9.3596L10.0836 8.96628L9.51726 8.82469H9.4386V8.87189L9.91058 9.33338L10.7759 10.1148L11.8588 11.1217L11.9139 11.3708L11.7749 11.5674L11.6281 11.5465L10.6762 10.8306L10.3091 10.5081L9.47793 9.80799H9.42286V9.88141L9.61428 10.162L10.6264 11.6828L10.6789 12.1496L10.6054 12.3016L10.3432 12.3934L10.0548 12.341L9.4622 11.5097L8.85124 10.5736L8.35828 9.73457L8.29797 9.76865L8.00691 12.9021L7.87056 13.0621L7.55591 13.1827L7.29369 12.9834L7.15472 12.6609L7.29369 12.0237L7.46151 11.1925L7.59786 10.5317L7.7211 9.71097L7.79452 9.43827L7.78928 9.41991L7.72897 9.42778L7.11014 10.2773L6.1688 11.5491L5.42411 12.3462L5.24581 12.417L4.9364 12.2571L4.96524 11.9712L5.1383 11.7169L6.1688 10.4058L6.79024 9.59297L7.19143 9.12361L7.18881 9.05544H7.16521L4.4277 10.8332L3.93999 10.8962L3.73022 10.6995L3.75644 10.377L3.85608 10.2721L4.67943 9.70572L4.67681 9.70835Z" fill="#D97757"></path> </svg>