<svg xmlns="http://www.w3.org/2000/svg" viewBox="0 0 16 16" fill="none"> <rect width="16" height="16" rx="8" fill="white"></rect> <rect width="16" height="16" rx="8" fill="#F3F3FA"></rect> <path d="M2.85869 9.20519C2.85869 9.70602 2.96857 10.0905 3.11229 10.3231C3.30068 10.6278 3.58164 10.7571 3.8681 10.7571C4.23751 10.7571 4.5755 10.6654 5.22681 9.76459C5.74874 9.04257 6.36346 8.0291 6.77715 7.39372L7.47774 6.31729C7.9644 5.56972 8.52769 4.73871 9.17356 4.17541C9.70098 3.71562 10.2696 3.46021 10.842 3.46021C11.8031 3.46021 12.7185 4.01713 13.4191 5.06164C14.1858 6.20554 14.558 7.64644 14.558 9.13333C14.558 10.0173 14.3838 10.6668 14.0873 11.1799C13.8009 11.6762 13.2426 12.172 12.3034 12.172V10.7569C13.1076 10.7569 13.3082 10.018 13.3082 9.17234C13.3082 7.96729 13.0273 6.63 12.4083 5.67444C11.9691 4.99665 11.3999 4.58251 10.7736 4.58251C10.0963 4.58251 9.55122 5.09345 8.93864 6.00419C8.61296 6.48815 8.27865 7.07787 7.90325 7.74336L7.48999 8.47543C6.65997 9.94753 6.44966 10.2827 6.03459 10.8358C5.30713 11.8045 4.68587 12.1718 3.8681 12.1718C2.89792 12.1718 2.28446 11.7516 1.9045 11.1186C1.59436 10.6027 1.44202 9.92583 1.44202 9.15459L2.85869 9.20519Z" fill="#0081FB"></path> <path d="M2.55908 5.16128C3.20858 4.16011 4.1459 3.45996 5.22096 3.45996C5.84354 3.45996 6.4626 3.64423 7.1088 4.17198C7.81576 4.74885 8.56926 5.6993 9.50933 7.26508L9.84639 7.82684C10.6601 9.18242 11.123 9.87982 11.394 10.2087C11.7424 10.631 11.9865 10.7569 12.3035 10.7569C13.1076 10.7569 13.3082 10.018 13.3082 9.17237L14.558 9.13314C14.558 10.0171 14.3838 10.6666 14.0873 11.1798C13.8009 11.676 13.2426 12.1718 12.3035 12.1718C11.7196 12.1718 11.2024 12.045 10.6304 11.5054C10.1909 11.0912 9.67668 10.3555 9.28122 9.69418L8.10491 7.72927C7.51475 6.74315 6.97315 6.0079 6.66 5.67491C6.32289 5.31681 5.88958 4.88444 5.19811 4.88444C4.63849 4.88444 4.16321 5.27714 3.7655 5.87786L2.55908 5.16128Z" fill="url(#paint0_linear_38187_34499_:r14:)"></path> <path d="M5.19808 4.88444C4.63846 4.88444 4.16318 5.27715 3.76547 5.87786C3.20305 6.72667 2.85896 7.991 2.85896 9.20517C2.85896 9.706 2.96884 10.0905 3.11257 10.3231L1.9045 11.1185C1.59436 10.6027 1.44202 9.92581 1.44202 9.15457C1.44202 7.75201 1.82698 6.29018 2.55905 5.16128C3.20855 4.16011 4.14587 3.45996 5.22093 3.45996L5.19808 4.88444Z" fill="url(#paint1_linear_38187_34499_:r14:)"></path> <defs> <linearGradient id="paint0_linear_38187_34499_:r14:" x1="4.28529" y1="7.5901" x2="13.3163" y2="8.04621" gradientUnits="userSpaceOnUse"> <stop stop-color="#0064E1"></stop> <stop offset="0.4" stop-color="#0064E1"></stop> <stop offset="0.83" stop-color="#0073EE"></stop> <stop offset="1" stop-color="#0082FB"></stop> </linearGradient> <linearGradient id="paint1_linear_38187_34499_:r14:" x1="3.33145" y1="9.79994" x2="3.33145" y2="6.47032" gradientUnits="userSpaceOnUse"> <stop stop-color="#0082FB"></stop> <stop offset="1" stop-color="#0064E0"></stop> </linearGradient> </defs> </svg>