<?xml version="1.0" standalone="no"?><!DOCTYPE svg PUBLIC "-//W3C//DTD SVG 1.1//EN" "http://www.w3.org/Graphics/SVG/1.1/DTD/svg11.dtd"><svg class="icon" width="200px" height="121.54px" viewBox="0 0 1685 1024" version="1.1" xmlns="http://www.w3.org/2000/svg"><path d="M842.884129 0C618.099613 0 477.646452 111.715097 421.425548 335.14529c84.298323-111.715097 182.635355-153.6 295.011097-125.687742 64.115613 15.921548 109.964387 62.16671 160.668903 113.36671 82.64671 83.373419 178.308129 179.860645 387.204129 179.860645 224.751484 0 365.237677-111.715097 421.425549-335.112258-84.26529 111.715097-182.602323 153.6-294.978065 125.65471-64.148645-15.921548-109.997419-62.16671-160.701935-113.333678C1147.408516 96.454194 1051.780129 0 842.884129 0zM421.425548 502.684903C196.674065 502.684903 56.187871 614.4 0 837.830194c84.298323-111.715097 182.635355-153.6 294.978065-125.687742 64.148645 15.921548 109.997419 62.16671 160.701935 113.366709 82.64671 83.373419 178.275097 179.860645 387.204129 179.860645 224.751484 0 365.237677-111.682065 421.425548-335.112258-84.298323 111.715097-182.635355 153.6-295.011096 125.687742-64.115613-15.954581-109.964387-62.199742-160.668904-113.366709-82.64671-83.373419-178.308129-179.893677-387.204129-179.893678z" fill="#06B6D4" /></svg>