<?xml version="1.0" standalone="no"?><!DOCTYPE svg PUBLIC "-//W3C//DTD SVG 1.1//EN" "http://www.w3.org/Graphics/SVG/1.1/DTD/svg11.dtd"><svg class="icon" width="200px" height="200.00px" viewBox="0 0 1024 1024" version="1.1" xmlns="http://www.w3.org/2000/svg"><path d="M0 512v512h1024V0H0z m825.216-40.8a127.424 127.424 0 0 1 64.032 36.896c9.44 10.08 23.424 28.416 24.544 32.864 0.352 1.28-44.192 31.136-71.168 47.904-0.992 0.64-4.896-3.584-9.248-10.08-13.216-19.2-27.008-27.488-48.128-28.928-31.072-2.144-51.04 14.112-50.848 41.248l-0.032 1.6c0 6.432 1.632 12.512 4.48 17.824l-0.096-0.192c6.816 14.112 19.552 22.624 59.296 39.808 73.344 31.584 104.704 52.352 124.192 81.92 21.76 32.992 26.656 85.664 11.872 124.832-16.224 42.592-56.544 71.52-113.28 81.056-17.536 3.104-59.136 2.656-77.984-0.768-41.12-7.328-80.128-27.648-104.192-54.304-9.44-10.368-27.808-37.536-26.656-39.456 0.48-0.672 4.704-3.296 9.376-6.016 4.608-2.592 21.792-12.544 38.048-21.984l29.44-17.056 6.176 9.12c8.608 13.152 27.424 31.2 38.816 37.216 32.672 17.248 77.536 14.816 99.616-5.024a37.6 37.6 0 0 0 13.344-30.784v0.096c0-11.872-1.504-17.056-7.68-26.016-7.936-11.36-24.192-20.896-70.368-40.96-52.832-22.752-75.552-36.864-96.384-59.296a134.88 134.88 0 0 1-27.872-50.24l-0.256-0.96c-3.872-14.464-4.864-50.72-1.792-65.312 10.88-51.072 49.408-86.624 104.992-97.184 18.048-3.424 60-2.144 77.696 2.272z m-240.384 42.752l0.352 41.952H451.84v378.72h-94.304V555.904H224.32v-41.12c0-22.784 0.48-41.824 1.12-42.24 0.512-0.672 81.632-1.024 179.936-0.864l178.976 0.512z" fill="#007ACC" /></svg>